<?xml version="1.0" encoding="UTF-8"?>
<svg width="512" height="512" viewBox="0 0 512 512" fill="none" xmlns="http://www.w3.org/2000/svg">
  <defs>
    <linearGradient id="logoGradient" x1="0%" y1="0%" x2="100%" y2="100%">
      <stop offset="0%" style="stop-color:#00ff94;stop-opacity:1" />
      <stop offset="100%" style="stop-color:#00c4ff;stop-opacity:1" />
    </linearGradient>
    <filter id="glow">
      <feGaussianBlur stdDeviation="4" result="coloredBlur"/>
      <feMerge>
        <feMergeNode in="coloredBlur"/>
        <feMergeNode in="SourceGraphic"/>
      </feMerge>
    </filter>
  </defs>
  <path d="M256 32c-20 0-36 8-48 24-12 16-18 36-18 60 0 16 2 30 6 42-32 4-60 14-84 30-24 16-42 36-54 60-12 24-18 50-18 78 0 36 10 68 30 96 20 28 46 50 78 66 32 16 66 24 102 24 36 0 70-8 102-24 32-16 58-38 78-66 20-28 30-60 30-96 0-28-6-54-18-78-12-24-30-44-54-60-24-16-52-26-84-30 4-12 6-26 6-42 0-24-6-44-18-60-12-16-28-24-48-24zm0 48c8 0 14 4 18 12 4 8 6 20 6 36 0 16-2 28-6 36-4 8-10 12-18 12s-14-4-18-12c-4-8-6-20-6-36 0-16 2-28 6-36 4-8 10-12 18-12zm-96 144c44 0 82 10 114 30 32 20 48 46 48 78 0 32-16 58-48 78-32 20-70 30-114 30s-82-10-114-30c-32-20-48-46-48-78 0-32 16-58 48-78 32-20 70-30 114-30zm-42 72c-8 0-14 2-18 6-4 4-6 10-6 18s2 14 6 18c4 4 10 6 18 6s14-2 18-6c4-4 6-10 6-18s-2-14-6-18c-4-4-10-6-18-6zm180 0c-8 0-14 2-18 6-4 4-6 10-6 18s2 14 6 18c4 4 10 6 18 6s14-2 18-6c4-4 6-10 6-18s-2-14-6-18c-4-4-10-6-18-6z" fill="url(#logoGradient)" filter="url(#glow)"/>
</svg>
